<svg t="1739763661920" class="icon" viewBox="0 0 1024 1024" version="1.1" xmlns="http://www.w3.org/2000/svg" p-id="7054" width="48" height="48"><path d="M484.62059 649.803541c-111.515279-64.360918-186.468721-184.168918-186.468721-321.351344 0-65.771016 17.290492-127.496393 47.523672-181.080131-138.77718 64.797377-234.865311 204.665705-234.865311 366.86059 0 223.853115 182.993836 405.336131 408.727081 405.336131 192.276984 0 353.447869-131.693115 397.04341-309.080131A374.951869 374.951869 0 0 1 672.818361 700.013115c-29.242754 0-57.713311-3.323803-85.025574-9.602099l-35.067803-9.887475a379.887213 379.887213 0 0 1-33.305181-12.959475l-34.799213-17.760525z" fill="#FF8000" p-id="7055"></path><path d="M547.403541 696.437508a389.455738 389.455738 0 0 1-34.799213-13.547016l13.664524-30.66964c10.357508 4.616393 21.067541 8.779541 31.794361 12.388722l-10.659672 31.827934z" fill="#000000" p-id="7056"></path><path d="M519.554098 936.355672c-234.647082 0-425.530754-189.356066-425.530754-422.123016 0-162.732066 96.004197-312.706098 244.551345-382.069508a16.786885 16.786885 0 0 1 21.722229 23.451278 352.339934 352.339934 0 0 0-45.358164 172.837771c0 125.851279 68.221902 243.409836 178.058492 306.797114l-16.786885 29.074886c-120.194098-69.380197-194.845377-198.068459-194.845377-335.888787 0-48.480525 9.199213-96.541377 26.89259-141.429508-111.145967 70.823869-180.660459 194.408918-180.660459 327.209967 0 214.251016 175.842623 388.549246 391.956983 388.549246 164.10859 0 307.95541-99.81482 365.534427-248.126951a393.70282 393.70282 0 0 1-212.270164 62.145049c-29.931016 0-59.811672-3.374164-88.785836-10.038557l7.503737-32.71764c26.523279 6.093639 53.869115 9.182426 81.282099 9.182427a359.575082 359.575082 0 0 0 232.867672-85.512394 16.770098 16.770098 0 1 1 27.177967 16.786885c-46.533246 189.523934-216.500459 321.871738-413.309902 321.871738z" fill="#000000" p-id="7057"></path><path d="M519.554098 936.355672c-234.647082 0-425.530754-189.356066-425.530754-422.123016 0-162.732066 96.004197-312.706098 244.551345-382.069508a16.786885 16.786885 0 0 1 21.722229 23.451278 352.339934 352.339934 0 0 0-45.358164 172.837771c0 125.851279 68.221902 243.409836 178.058492 306.797114l-16.786885 29.074886c-120.194098-69.380197-194.845377-198.068459-194.845377-335.888787 0-48.480525 9.199213-96.541377 26.89259-141.429508-111.145967 70.823869-180.660459 194.408918-180.660459 327.209967 0 214.251016 175.842623 388.549246 391.956983 388.549246 164.10859 0 307.95541-99.81482 365.534427-248.126951a393.70282 393.70282 0 0 1-212.270164 62.145049c-29.931016 0-59.811672-3.374164-88.785836-10.038557l7.503737-32.71764c26.523279 6.093639 53.869115 9.182426 81.282099 9.182427a359.575082 359.575082 0 0 0 232.867672-85.512394 16.770098 16.770098 0 1 1 27.177967 16.786885c-46.533246 189.523934-216.500459 321.871738-413.309902 321.871738z" fill="#000000" p-id="7058"></path><path d="M905.568525 44.317377h-16.786886v-16.786885a16.786885 16.786885 0 1 0-33.57377 0v16.786885h-16.786885a16.786885 16.786885 0 1 0 0 33.573771h16.786885v16.786885a16.786885 16.786885 0 1 0 33.57377 0v-16.786885h16.786886a16.786885 16.786885 0 1 0 0-33.573771zM569.83082 447.202623h-16.786886v-16.786885a16.786885 16.786885 0 1 0-33.57377 0v16.786885h-16.786885a16.786885 16.786885 0 1 0 0 33.57377h16.786885v16.786886a16.786885 16.786885 0 1 0 33.57377 0v-16.786886h16.786886a16.786885 16.786885 0 1 0 0-33.57377zM234.093115 111.464918a16.786885 16.786885 0 1 0 0-33.57377h-16.786885v-16.786886a16.786885 16.786885 0 1 0-33.573771 0v16.786886h-16.786885a16.786885 16.786885 0 1 0 0 33.57377h16.786885v16.786885a16.786885 16.786885 0 1 0 33.573771 0v-16.786885h16.786885zM318.027541 950.80918h-16.786885v-16.786885a16.786885 16.786885 0 1 0-33.573771 0v16.786885h-16.786885a16.786885 16.786885 0 1 0 0 33.573771h16.786885v16.786885a16.786885 16.786885 0 1 0 33.573771 0v-16.786885h16.786885a16.786885 16.786885 0 1 0 0-33.573771z" fill="#000000" p-id="7059"></path><path d="M586.617705 228.973115c-27.765508 0-50.360656-22.595148-50.360656-50.360656s22.595148-50.360656 50.360656-50.360656 50.360656 22.595148 50.360656 50.360656-22.595148 50.360656-50.360656 50.360656z m0-67.147541a16.803672 16.803672 0 0 0 0 33.57377 16.803672 16.803672 0 0 0 0-33.57377zM788.060328 480.776393c-27.765508 0-50.360656-22.595148-50.360656-50.360655s22.595148-50.360656 50.360656-50.360656 50.360656 22.595148 50.360656 50.360656-22.595148 50.360656-50.360656 50.360655z m0-67.147541a16.803672 16.803672 0 0 0 0 33.573771 16.803672 16.803672 0 0 0 0-33.573771zM66.224262 799.727213c-27.765508 0-50.360656-22.595148-50.360655-50.360656s22.595148-50.360656 50.360655-50.360655 50.360656 22.595148 50.360656 50.360655-22.595148 50.360656-50.360656 50.360656z m0-67.147541a16.803672 16.803672 0 0 0 0 33.573771 16.803672 16.803672 0 0 0 0-33.573771zM955.92918 934.022295c-27.765508 0-50.360656-22.595148-50.360655-50.360656s22.595148-50.360656 50.360655-50.360655 50.360656 22.595148 50.360656 50.360655-22.595148 50.360656-50.360656 50.360656z m0-67.147541a16.803672 16.803672 0 0 0 0 33.573771 16.803672 16.803672 0 0 0 0-33.573771z" fill="#3EBBDD" p-id="7060"></path><path d="M838.420984 245.76h33.57377v33.57377h-33.57377zM469.109508 27.530492h33.573771v33.57377h-33.573771zM66.224262 279.33377h33.573771v33.573771h-33.573771zM116.584918 917.23541h33.573771v33.57377h-33.573771zM989.502951 463.989508h33.57377v33.573771h-33.57377zM15.863607 94.678033h33.57377v33.57377h-33.57377zM687.339016 950.80918h33.573771v33.573771h-33.573771z" fill="#FF8000" p-id="7061"></path></svg>