<svg t="1740207839731" class="icon" viewBox="0 0 1024 1024" version="1.1" xmlns="http://www.w3.org/2000/svg" p-id="16120" width="48" height="48"><path d="M1007.384832 575.029277c-1.805996-45.511111-17.337566-88.855026-44.066313-125.336155l-1.083598-1.444797-0.3612-0.3612c-5.417989-6.501587-13.003175-10.835979-21.310758-11.919576-9.029982-1.444797-18.059965 0.722399-25.64515 6.501587-3.973192 2.889594-6.862787 6.501587-9.391182 10.474779l-57.069488 98.607408c-7.585185 13.364374-24.922751 17.698765-37.925926 10.11358l-25.283951-14.447972c-13.364374-7.585185-17.698765-24.922751-10.11358-37.925926l57.069489-98.607407c4.695591-7.946384 5.779189-17.337566 3.611993-26.006349-2.528395-9.029982-7.946384-16.253968-15.892769-20.949559-3.973192-2.528395-8.668783-3.973192-13.364374-4.334392-60.320282-6.862787-119.556966 10.11358-166.874074 48.039506-47.317108 37.564727-77.296649 91.744621-84.159436 151.703704-5.05679 42.982716 2.528395 85.965432 21.310758 124.613757l-82.353439 142.673721c-34.313933 61.40388-12.280776 139.061728 48.761905 173.375661 19.865961 11.197178 41.537919 16.615168 62.487478 16.615168 43.343915 0 85.243034-22.394356 109.082187-62.487478l82.353439-142.673721c121.724162-9.029982 215.635979-113.416578 210.217989-236.224339zM917.446208 663.523104c-28.895944 49.845503-82.714638 79.825044-139.784127 78.741446-13.003175-0.361199-25.283951 6.862787-31.063139 18.059965l-1.083598 2.167196-90.299824 156.399294c-16.253968 27.812346-52.012698 37.564727-79.825044 21.310759-13.364374-7.946384-23.116755-20.22716-27.089947-35.397531-3.973192-15.17037-2.167196-30.70194 5.779189-44.427513l90.299823-156.399295 1.083598-1.805996c6.862787-11.197178 6.862787-24.922751 0-36.11993-45.149912-74.407055-21.310758-171.930864 53.096297-216.719577 13.003175-7.946384 27.089947-13.725573 41.537918-17.698765l-24.922751 42.982716c-26.367549 46.23351-10.47478 105.470194 35.397531 132.198942l25.283951 14.447972c46.23351 26.728748 105.470194 10.835979 132.198941-35.397531l24.922752-43.343916c11.197178 40.81552 5.779189 84.520635-15.53157 121.001764zM387.566843 448.248325H176.265256c-19.504762 0-35.036332 15.892769-35.036332 35.036331 0 19.504762 15.892769 35.036332 35.036332 35.036332h211.301587c19.504762 0 35.036332-15.892769 35.036332-35.036332 0-19.504762-15.53157-35.036332-35.036332-35.036331zM386.483245 649.075132H176.265256c-19.504762 0-35.036332 15.892769-35.036332 35.036332s15.892769 35.036332 35.036332 35.036331H386.483245c19.504762 0 35.036332-15.892769 35.036332-35.036331s-15.53157-35.036332-35.036332-35.036332z" fill="#4080FF" p-id="16121"></path><path d="M693.863845 736.124162l-0.722399-0.361199c-16.253968-9.391182-37.564727-3.611993-46.955908 12.641975l-73.684656 127.503351c-4.695591 7.946384-5.779189 17.337566-3.611993 26.006349 2.528395 9.029982 7.946384 16.253968 15.892769 20.94956 5.417989 2.889594 11.197178 4.695591 17.337566 4.69559 2.889594 0 6.140388-0.361199 9.029982-1.083598 9.029982-2.528395 16.253968-7.946384 20.949559-15.892768l73.684657-127.503351c4.695591-7.946384 5.779189-17.337566 3.250793-26.00635-1.805996-9.029982-7.223986-16.253968-15.17037-20.949559zM422.964374 895.77425H100.413404c-1.805996-0.361199-7.223986-6.140388-7.223986-16.253968V268.009877h779.106878v98.246208c0 19.504762 15.892769 35.036332 35.036332 35.036331s35.036332-15.892769 35.036331-35.036331V96.079012c0-47.678307-34.675132-86.687831-77.296649-86.68783H100.052205c-42.621517 0-77.296649 39.009524-77.296649 86.68783v783.802469c0 47.678307 34.675132 86.687831 77.296649 86.687831h322.912169c19.504762 0 35.036332-15.892769 35.036331-35.036331s-15.892769-35.75873-35.036331-35.758731zM93.189418 96.079012c0-10.11358 5.05679-15.892769 6.862787-16.253968h765.381305c1.805996 0.361199 7.223986 6.140388 7.223986 16.253968v101.497002H93.189418V96.079012z" fill="#4080FF" p-id="16122"></path><path d="M204.077601 98.968607c-22.394356 0-40.454321 18.059965-40.454321 40.454321s18.059965 40.454321 40.454321 40.454321 40.454321-18.059965 40.454321-40.454321-17.698765-40.454321-40.454321-40.454321zM325.079365 98.968607c-22.394356 0-40.454321 18.059965-40.454321 40.454321s18.059965 40.454321 40.454321 40.454321 40.454321-18.059965 40.454321-40.454321-18.059965-40.454321-40.454321-40.454321z" fill="#4080FF" p-id="16123"></path></svg>