<svg t="1740207895410" class="icon" viewBox="0 0 1024 1024" version="1.1" xmlns="http://www.w3.org/2000/svg" p-id="18057" width="48" height="48"><path d="M934.13913067 962H89.50869599C74.32608711 962 62 950.22173955 62 935.68478223v-279.97826045C62 641.16956533 74.32608711 629.39130401 89.50869599 629.39130401h844.63043468c15.20217422 0 27.52826045 11.77826045 27.52826045 26.31521776v279.97826045c0.05869599 14.53695645-12.26739112 26.31521777-27.50869513 26.31521778zM601.13913067 62H922.86956533a39.13043467 39.13043467 0 0 1 39.13043467 39.13043467v455.08695645a39.13043467 39.13043467 0 0 1-39.13043467 39.13043466H601.13913067a39.13043467 39.13043467 0 0 1-39.13043468-39.13043466V101.13043467a39.13043467 39.13043467 0 0 1 39.13043468-39.13043467zM117.09565244 906.92391289H906.63043467v-215.21739111H117.09565244v215.21739111z m357.67173868-312.84782578H89.52826045C74.32608711 594.07608711 62 582.82608711 62 568.97391289v-184.63695644c0-13.83260888 12.32608711-25.04347823 27.50869599-25.04347823h385.25869513c15.20217422 0 27.52826045 11.21086933 27.52826132 25.04347822v184.63695645c0 13.89130401-12.32608711 25.10217422-27.52826132 25.10217422z m0.29347822-274.22608711H89.86086933c-15.20217422 0-27.52826045-12.32608711-27.52826045-27.50869599V89.58695645A27.45 27.45 0 0 1 89.84130401 62h385.27826132c15.18260888 0 27.50869599 12.32608711 27.50869512 27.50869599V292.28260888c0 15.26086934-12.32608711 27.56739112-27.58695644 27.56739112h0.01956532zM117.36956533 264.77391289h330.18260889v-147.71739111H117.36956533v147.71739111z" fill="#1890ff" p-id="18058"></path></svg>